<svg xmlns="http://www.w3.org/2000/svg" viewBox="0 0 15.5 9.27"><defs><style>.cls-1{fill:red;}</style></defs><g id="Layer_2" data-name="Layer 2"><g id="Layer_1-2" data-name="Layer 1"><path class="cls-1" d="M14.06,0H1.44A1.43,1.43,0,0,0,0,1.44V7.83A1.44,1.44,0,0,0,1.44,9.27H14.06A1.45,1.45,0,0,0,15.5,7.83V1.44A1.44,1.44,0,0,0,14.06,0ZM5.41,6.83a1.33,1.33,0,0,1-1,.42H2.61V2.34H4.42a1.12,1.12,0,0,1,.87.36,1.35,1.35,0,0,1,.33.94,1.25,1.25,0,0,1-.4,1A1.19,1.19,0,0,1,5.63,5a1.47,1.47,0,0,1,.17.74A1.56,1.56,0,0,1,5.41,6.83Zm4-1.34A2,2,0,0,1,9,6.85a1.52,1.52,0,0,1-1.21.52,1.46,1.46,0,0,1-1.16-.5,1.87,1.87,0,0,1-.43-1.3V2.34H7V5.4a1.43,1.43,0,0,0,.23.87.74.74,0,0,0,.62.29.77.77,0,0,0,.64-.29,1.38,1.38,0,0,0,.23-.86V2.34h.77Zm2.44-.21v2h-.77v-2L9.59,2.34h.89l1,2.08,1-2.08h.89Z"/><path class="cls-1" d="M4.27,5.07H3.38V6.46h1a.6.6,0,0,0,.49-.19A.73.73,0,0,0,5,5.73C5,5.28,4.79,5.07,4.27,5.07Z"/><path class="cls-1" d="M4.7,4.17a.65.65,0,0,0,.15-.47.55.55,0,0,0-.15-.43.76.76,0,0,0-.51-.14H3.38V4.31h.8A.81.81,0,0,0,4.7,4.17Z"/></g></g></svg>