<svg xmlns="http://www.w3.org/2000/svg" viewBox="0 0 18.87 9.27"><defs><style>.cls-1{fill:red;}</style></defs><g id="Layer_2" data-name="Layer 2"><g id="Layer_1-2" data-name="Layer 1"><path class="cls-1" d="M17.43,0h-16A1.43,1.43,0,0,0,0,1.44V7.83A1.44,1.44,0,0,0,1.44,9.27h16a1.45,1.45,0,0,0,1.44-1.44V1.44A1.44,1.44,0,0,0,17.43,0ZM5.54,3.16H3.42V4.33H5.29v.81H3.42V7.25H2.66V2.34H5.54ZM9.33,7.25H8.47l0-.1A5.45,5.45,0,0,1,8.36,6a1,1,0,0,0-.14-.56.51.51,0,0,0-.42-.15H6.68v2H5.91V2.34H7.8a1.36,1.36,0,0,1,1,.36,1.4,1.4,0,0,1,.36,1,1.55,1.55,0,0,1-.13.69,1.4,1.4,0,0,1-.31.4A.61.61,0,0,1,9,5.07a1.51,1.51,0,0,1,.14.63l0,.85a1,1,0,0,0,0,.26.48.48,0,0,0,.11.11l.05,0Zm3.47,0H9.74V2.34h3v.82H10.51V4.33h2.08v.81H10.51V6.43H12.8Zm3.55,0H13.28V2.34h3v.82H14.05V4.33h2.08v.81H14.05V6.43h2.3Z"/><path class="cls-1" d="M7.84,3.13H6.68V4.46H7.75a.64.64,0,0,0,.49-.16.69.69,0,0,0,.16-.52C8.4,3.33,8.22,3.13,7.84,3.13Z"/></g></g></svg>