<svg xmlns="http://www.w3.org/2000/svg" viewBox="0 0 16.87 9.27"><defs><style>.cls-1{fill:red;}</style></defs><g id="Layer_2" data-name="Layer 2"><g id="Layer_1-2" data-name="Layer 1"><path class="cls-1" d="M5.23,6.26V2.54h.5V7.12H5.16L3.23,3.4V7.12H2.74V2.54h.6Z"/><path class="cls-1" d="M9.35,6.57v.55H6.58V2.54H9.31v.55H7.09v1.4h2v.56h-2V6.57Z"/><path class="cls-1" d="M12.08,3.3l-.87,3.82h-.54l-1-4.58h.55L11,6.29l.85-3.75h.56l.85,3.75.7-3.75h.56l-1,4.58H13Z"/><path class="cls-1" d="M15.43,9.27h-14A1.44,1.44,0,0,1,0,7.83V1.44A1.43,1.43,0,0,1,1.44,0h14a1.44,1.44,0,0,1,1.44,1.44V7.83A1.45,1.45,0,0,1,15.43,9.27ZM1.44.52a.92.92,0,0,0-.92.92V7.83a.92.92,0,0,0,.92.92h14a.92.92,0,0,0,.92-.92V1.44a.92.92,0,0,0-.92-.92Z"/></g></g></svg>